<mxfile host="app.diagrams.net" modified="2023-10-27T12:02:10.289Z" agent="Mozilla/5.0 (Windows NT 10.0; Win64; x64) AppleWebKit/537.36 (KHTML, like Gecko) Chrome/116.0.5845.931 YaBrowser/23.9.0.0 Safari/537.36" etag="LCqO4nJ6_oZJz0mTfiDJ" version="22.0.8" type="github">
  <diagram id="C5RBs43oDa-KdzZeNtuy" name="Page-1">
    <mxGraphModel dx="1631" dy="931" grid="1" gridSize="10" guides="1" tooltips="1" connect="1" arrows="1" fold="1" page="1" pageScale="1" pageWidth="827" pageHeight="1169" math="0" shadow="0">
      <root>
        <mxCell id="WIyWlLk6GJQsqaUBKTNV-0" />
        <mxCell id="WIyWlLk6GJQsqaUBKTNV-1" parent="WIyWlLk6GJQsqaUBKTNV-0" />
        <mxCell id="WIyWlLk6GJQsqaUBKTNV-2" value="" style="rounded=0;html=1;jettySize=auto;orthogonalLoop=1;fontSize=11;endArrow=block;endFill=0;endSize=8;strokeWidth=1;shadow=0;labelBackgroundColor=none;edgeStyle=orthogonalEdgeStyle;" parent="WIyWlLk6GJQsqaUBKTNV-1" edge="1">
          <mxGeometry relative="1" as="geometry">
            <mxPoint x="220" y="120" as="sourcePoint" />
            <mxPoint x="220" y="170" as="targetPoint" />
          </mxGeometry>
        </mxCell>
        <mxCell id="oWf-GPALmsze_Nitcz31-2" style="edgeStyle=orthogonalEdgeStyle;rounded=0;orthogonalLoop=1;jettySize=auto;html=1;" edge="1" parent="WIyWlLk6GJQsqaUBKTNV-1" source="WIyWlLk6GJQsqaUBKTNV-7" target="WIyWlLk6GJQsqaUBKTNV-12">
          <mxGeometry relative="1" as="geometry" />
        </mxCell>
        <mxCell id="WIyWlLk6GJQsqaUBKTNV-7" value="Продавец / Старший смены формирует заказ на аренду" style="rounded=1;whiteSpace=wrap;html=1;fontSize=12;glass=0;strokeWidth=1;shadow=0;" parent="WIyWlLk6GJQsqaUBKTNV-1" vertex="1">
          <mxGeometry x="160" y="170" width="120" height="50" as="geometry" />
        </mxCell>
        <mxCell id="oWf-GPALmsze_Nitcz31-5" style="edgeStyle=orthogonalEdgeStyle;rounded=0;orthogonalLoop=1;jettySize=auto;html=1;entryX=0.5;entryY=0;entryDx=0;entryDy=0;" edge="1" parent="WIyWlLk6GJQsqaUBKTNV-1" source="WIyWlLk6GJQsqaUBKTNV-11" target="oWf-GPALmsze_Nitcz31-4">
          <mxGeometry relative="1" as="geometry" />
        </mxCell>
        <mxCell id="WIyWlLk6GJQsqaUBKTNV-11" value="&lt;div&gt;Штрих-код&lt;/div&gt;&lt;div&gt;распечатывается и&lt;/div&gt;&lt;div&gt;наклеивается на&lt;/div&gt;&lt;div&gt;оборудывание&lt;/div&gt;" style="rounded=1;whiteSpace=wrap;html=1;fontSize=12;glass=0;strokeWidth=1;shadow=0;" parent="WIyWlLk6GJQsqaUBKTNV-1" vertex="1">
          <mxGeometry x="160" y="350" width="120" height="100" as="geometry" />
        </mxCell>
        <mxCell id="oWf-GPALmsze_Nitcz31-3" style="edgeStyle=orthogonalEdgeStyle;rounded=0;orthogonalLoop=1;jettySize=auto;html=1;entryX=0.5;entryY=0;entryDx=0;entryDy=0;" edge="1" parent="WIyWlLk6GJQsqaUBKTNV-1" source="WIyWlLk6GJQsqaUBKTNV-12" target="WIyWlLk6GJQsqaUBKTNV-11">
          <mxGeometry relative="1" as="geometry" />
        </mxCell>
        <mxCell id="WIyWlLk6GJQsqaUBKTNV-12" value="&lt;div&gt;На заказ&lt;/div&gt;&lt;div&gt;формируется&lt;/div&gt;&lt;div&gt;штрих-код&lt;/div&gt;" style="rounded=1;whiteSpace=wrap;html=1;fontSize=12;glass=0;strokeWidth=1;shadow=0;" parent="WIyWlLk6GJQsqaUBKTNV-1" vertex="1">
          <mxGeometry x="160" y="250" width="120" height="40" as="geometry" />
        </mxCell>
        <mxCell id="oWf-GPALmsze_Nitcz31-0" value="" style="ellipse;whiteSpace=wrap;html=1;aspect=fixed;" vertex="1" parent="WIyWlLk6GJQsqaUBKTNV-1">
          <mxGeometry x="190" y="60" width="60" height="60" as="geometry" />
        </mxCell>
        <mxCell id="oWf-GPALmsze_Nitcz31-1" value="Клиет создает заказ" style="text;html=1;strokeColor=none;fillColor=none;align=center;verticalAlign=middle;whiteSpace=wrap;rounded=0;" vertex="1" parent="WIyWlLk6GJQsqaUBKTNV-1">
          <mxGeometry x="155" y="130" width="130" height="30" as="geometry" />
        </mxCell>
        <mxCell id="oWf-GPALmsze_Nitcz31-7" style="edgeStyle=orthogonalEdgeStyle;rounded=0;orthogonalLoop=1;jettySize=auto;html=1;" edge="1" parent="WIyWlLk6GJQsqaUBKTNV-1" source="oWf-GPALmsze_Nitcz31-4" target="oWf-GPALmsze_Nitcz31-6">
          <mxGeometry relative="1" as="geometry" />
        </mxCell>
        <mxCell id="oWf-GPALmsze_Nitcz31-4" value="&lt;div&gt;Старший смены&lt;/div&gt;&lt;div&gt;сканирует штрих-&lt;/div&gt;&lt;div&gt;код&lt;/div&gt;" style="rounded=1;whiteSpace=wrap;html=1;fontSize=12;glass=0;strokeWidth=1;shadow=0;" vertex="1" parent="WIyWlLk6GJQsqaUBKTNV-1">
          <mxGeometry x="160" y="510" width="120" height="65" as="geometry" />
        </mxCell>
        <mxCell id="oWf-GPALmsze_Nitcz31-9" style="edgeStyle=orthogonalEdgeStyle;rounded=0;orthogonalLoop=1;jettySize=auto;html=1;entryX=0.5;entryY=0;entryDx=0;entryDy=0;" edge="1" parent="WIyWlLk6GJQsqaUBKTNV-1" source="oWf-GPALmsze_Nitcz31-6" target="oWf-GPALmsze_Nitcz31-8">
          <mxGeometry relative="1" as="geometry" />
        </mxCell>
        <mxCell id="oWf-GPALmsze_Nitcz31-6" value="&lt;div&gt;Статии смены&lt;/div&gt;&lt;div&gt;принимает&lt;/div&gt;&lt;div&gt;оборудование&lt;/div&gt;" style="rounded=1;whiteSpace=wrap;html=1;fontSize=12;glass=0;strokeWidth=1;shadow=0;" vertex="1" parent="WIyWlLk6GJQsqaUBKTNV-1">
          <mxGeometry x="160" y="620" width="120" height="65" as="geometry" />
        </mxCell>
        <mxCell id="oWf-GPALmsze_Nitcz31-11" style="edgeStyle=orthogonalEdgeStyle;rounded=0;orthogonalLoop=1;jettySize=auto;html=1;entryX=0.5;entryY=0;entryDx=0;entryDy=0;" edge="1" parent="WIyWlLk6GJQsqaUBKTNV-1" source="oWf-GPALmsze_Nitcz31-8" target="oWf-GPALmsze_Nitcz31-10">
          <mxGeometry relative="1" as="geometry" />
        </mxCell>
        <mxCell id="oWf-GPALmsze_Nitcz31-8" value="возврат&lt;br&gt;фиксируется в БД" style="rounded=1;whiteSpace=wrap;html=1;fontSize=12;glass=0;strokeWidth=1;shadow=0;" vertex="1" parent="WIyWlLk6GJQsqaUBKTNV-1">
          <mxGeometry x="160" y="750" width="120" height="65" as="geometry" />
        </mxCell>
        <mxCell id="oWf-GPALmsze_Nitcz31-10" value="" style="ellipse;whiteSpace=wrap;html=1;aspect=fixed;" vertex="1" parent="WIyWlLk6GJQsqaUBKTNV-1">
          <mxGeometry x="190" y="870" width="60" height="60" as="geometry" />
        </mxCell>
        <mxCell id="oWf-GPALmsze_Nitcz31-14" style="edgeStyle=orthogonalEdgeStyle;rounded=0;orthogonalLoop=1;jettySize=auto;html=1;entryX=1;entryY=0;entryDx=0;entryDy=0;" edge="1" parent="WIyWlLk6GJQsqaUBKTNV-1" source="oWf-GPALmsze_Nitcz31-13" target="oWf-GPALmsze_Nitcz31-10">
          <mxGeometry relative="1" as="geometry">
            <Array as="points">
              <mxPoint x="272" y="870" />
              <mxPoint x="272" y="880" />
              <mxPoint x="260" y="880" />
              <mxPoint x="260" y="879" />
            </Array>
          </mxGeometry>
        </mxCell>
        <mxCell id="oWf-GPALmsze_Nitcz31-13" value="&lt;div&gt;Администратор&lt;/div&gt;&lt;div&gt;может составить&lt;/div&gt;&lt;div&gt;отчет&lt;/div&gt;" style="rounded=0;whiteSpace=wrap;html=1;" vertex="1" parent="WIyWlLk6GJQsqaUBKTNV-1">
          <mxGeometry x="294" y="840" width="120" height="60" as="geometry" />
        </mxCell>
      </root>
    </mxGraphModel>
  </diagram>
</mxfile>
